# xmcd
#
# Track frame offsets: 
#        150
#        16773
#        47260
#        66600
#        83423
#        99368
#        118810
#        143520
#        160485
#        173898
#        194320
#        213795
#        234538
#        255405
#
# Disc length: 4023 seconds
#
# Revision: 0
# Processed by: cddbd v1.5.2PL0 Copyright (c) Steve Scherf et al.
# Submitted via: ExactAudioCopy v0.95a5
#
DISCID=ae0fb50e
DTITLE=Marcel Dadi - Nashville Rendez-Vous [CD2)
DYEAR=1990
DGENRE=Country
TTITLE0=Fingers Crossing
TTITLE1=Hawaiian Moon
TTITLE2=L'écho des Savanes
TTITLE3=Jumping the Strings
TTITLE4=Doctor Dove
TTITLE5=Calling Merle
TTITLE6=Je Veux Boire l'eau du Torrent
TTITLE7=Song for Doc
TTITLE8=Noami's Waltz
TTITLE9=Je t'aurai
TTITLE10=Slimou le Magnifique
TTITLE11=Je Crie Vers toi
TTITLE12=Medley
TTITLE13=Guitar Pickers Association
EXTD=
EXTT0=
EXTT1=
EXTT2=
EXTT3=
EXTT4=
EXTT5=
EXTT6=
EXTT7=
EXTT8=
EXTT9=
EXTT10=
EXTT11=
EXTT12=
EXTT13=
PLAYORDER=
